<?xml version="1.0" ?><!DOCTYPE svg  PUBLIC '-//W3C//DTD SVG 1.1//EN'  'http://www.w3.org/Graphics/SVG/1.1/DTD/svg11.dtd'><svg enable-background="new 0 0 500 500" height="500px" id="Layer_1" version="1.1" viewBox="0 0 500 500" width="500px" xml:space="preserve" xmlns="http://www.w3.org/2000/svg" xmlns:xlink="http://www.w3.org/1999/xlink"><radialGradient cx="265.4072" cy="-169.9238" gradientTransform="matrix(0.9979 -0.0653 0.0653 0.9979 -2.9482 427.2646)" gradientUnits="userSpaceOnUse" id="SVGID_1_" r="157.318"><stop offset="0" style="stop-color:#F1F6FC"/><stop offset="1" style="stop-color:#D7EDFA"/></radialGradient><polygon fill="url(#SVGID_1_)" points="355.906,358.511 292.297,307.673 309.163,387.336 266.779,317.808 255.382,398.434   239.332,318.604 201.047,390.469 213.27,309.964 152.713,364.399 191.733,292.931 116.21,323.373 177.322,269.56 95.941,272.335   171.772,242.67 94.351,217.443 175.754,215.502 111.63,165.317 188.789,191.335 145.694,122.246 209.303,173.084 192.438,93.422   234.822,162.949 246.219,82.322 262.268,162.153 300.555,90.288 288.33,170.793 348.888,116.357 309.867,187.826 385.391,157.384   324.279,211.197 405.66,208.422 329.828,238.088 407.25,263.312 325.846,265.255 389.971,315.438 312.812,289.422 "/><path d="M201.59,344.271v0.068c57.162,0,32.674,0,89.836,0" fill="none" stroke="#666699" stroke-miterlimit="10" stroke-width="5"/><path d="M291.426,342.718v-1.71c0-3.627-2.277-6.862-5.69-8.09c-32.996-11.862-30.61-45.646-30.61-45.646  c59.31-11.58,45.776-120.018,45.776-120.018c-110.241,0,13.666,0-108.787,0c0,0-13.533,108.438,45.774,120.018  c0,0,2.324,32.888-29.305,45.159c-4.216,1.636-6.994,5.695-6.994,10.218" fill="#FEC662"/><path d="M290.272,342.718c2.26,0,4.092,1.832,4.092,4.092v10.344c0,1.334-1.082,2.416-2.416,2.416h-90.87  c-1.334,0-2.416-1.082-2.416-2.416V346.81c0-2.26,1.832-4.092,4.093-4.092" fill="#FEC662"/><path d="M267.195,167.254h20.667c0,0,17.999,92.192-38.872,118.858c0,0-3.728,41.867,24.209,58.227v15.23h-14.693  v-15.23c0,0-14.279-20.227-11.998-59.048C246.508,285.291,278.715,232.252,267.195,167.254z" fill="#DCA451"/><path d="M225.82,167.254h-20.667c0,0-17.999,92.192,38.872,118.858c0,0,3.728,41.867-24.209,58.227v15.23h14.693  v-15.23c0,0,14.279-20.227,11.998-59.048C246.508,285.291,214.301,232.252,225.82,167.254z" fill="#FFE2B0"/><path d="M225.82,167.254h-20.667c0,0-17.999,92.192,38.872,118.858c0,0,3.728,41.867-24.209,58.227v15.23h14.693  v-15.23c0,0,14.279-20.227,11.998-59.048C246.508,285.291,214.301,232.252,225.82,167.254z" fill="#DCA451"/><path d="M267.195,167.254h20.667c0,0,17.999,92.192-38.872,118.858c0,0-3.728,41.867,24.209,58.227v15.23h-14.693  v-15.23c0,0-14.279-20.227-11.998-59.048C246.508,285.291,278.715,232.252,267.195,167.254z" fill="#FFE2B0"/><ellipse cx="281.423" cy="194.421" fill="#FDF5EB" rx="6.788" ry="14.521"/><path d="M73.875,272.915c0,0,11.262-64.282-45.805-85.957C28.07,186.958,10.801,249.148,73.875,272.915z" fill="#666699"/><path d="M75.825,210.731c0,0,32.483-56.604-13.788-96.418C62.037,114.313,24.618,166.903,75.825,210.731z" fill="#666699"/><path d="M105.98,160.617c0,0,46.742-45.543,13.145-96.509C119.125,64.108,68.734,104.44,105.98,160.617z" fill="#666699"/><path d="M97.45,334.159c0,0-8.446-64.714-69.38-68.361C28.07,265.798,30.158,330.308,97.45,334.159z" fill="#666699"/><path d="M133.675,378.632c0,0-30.44-57.729-88.834-39.941C44.841,338.69,69.25,398.44,133.675,378.632z" fill="#666699"/><path d="M186.25,409.286c0,0-47.541-44.711-96.992-8.921C89.258,400.365,131.75,448.946,186.25,409.286z" fill="#666699"/><path d="M248.136,425.376c0,0-59.265-27.33-94.815,22.294C153.32,447.67,209.023,480.271,248.136,425.376z" fill="#666699"/><path d="M248.805,441.191c0,0-29.717,10.298-25.494,39.411C223.311,480.603,253.551,473.325,248.805,441.191z" fill="#666699"/><path d="M392.153,157.11  c14.661,24.752,23.076,53.641,23.076,84.494c0,91.706-74.342,166.047-166.049,166.047c-92.668,0-166.282-74.972-166.282-166.047  c0-30.854,8.416-59.742,23.077-84.494" fill="none" stroke="#666699" stroke-miterlimit="10" stroke-width="5"/><path d="M424.255,272.915c0,0-11.263-64.282,45.803-85.957C470.058,186.958,487.327,249.148,424.255,272.915z" fill="#666699"/><path d="M422.304,210.731c0,0-32.483-56.604,13.788-96.418C436.092,114.313,473.51,166.903,422.304,210.731z" fill="#666699"/><path d="M392.148,160.617c0,0-46.743-45.543-13.145-96.509C379.004,64.108,429.395,104.44,392.148,160.617z" fill="#666699"/><path d="M400.678,334.159c0,0,8.447-64.714,69.38-68.361C470.058,265.798,467.971,330.308,400.678,334.159z" fill="#666699"/><path d="M364.454,378.632c0,0,30.44-57.729,88.833-39.941C453.287,338.69,428.88,398.44,364.454,378.632z" fill="#666699"/><path d="M311.88,409.286c0,0,47.54-44.711,96.991-8.921C408.871,400.365,366.379,448.946,311.88,409.286z" fill="#666699"/><path d="M249.994,425.376c0,0,59.264-27.33,94.814,22.294C344.809,447.67,289.104,480.271,249.994,425.376z" fill="#666699"/><path d="M249.324,441.191c0,0,29.717,10.298,25.494,39.411C274.818,480.603,244.578,473.325,249.324,441.191z" fill="#666699"/><path d="M248.947,444.585c0,0-4.642-65.383,91.865-64.496" fill="none" stroke="#666699" stroke-miterlimit="10" stroke-width="5"/><path d="M248.947,444.585c0,0,4.643-65.383-91.863-64.496" fill="none" stroke="#666699" stroke-miterlimit="10" stroke-width="5"/><circle cx="105.244" cy="242.671" fill="#666699" r="2.713" stroke="#666699" stroke-miterlimit="10" stroke-width="4"/><circle cx="393.068" cy="242.484" fill="#666699" r="2.713" stroke="#666699" stroke-miterlimit="10" stroke-width="4"/><circle cx="147.461" cy="344.404" fill="#666699" r="2.713" stroke="#666699" stroke-miterlimit="10" stroke-width="4"/><circle cx="350.983" cy="344.271" fill="#666699" r="2.714" stroke="#666699" stroke-miterlimit="10" stroke-width="4"/><circle cx="117.135" cy="299.857" fill="#666699" r="2.713" stroke="#666699" stroke-miterlimit="10" stroke-width="4"/><circle cx="381.178" cy="185.295" fill="#666699" r="2.712" stroke="#666699" stroke-miterlimit="10" stroke-width="4"/><circle cx="116.566" cy="186.623" fill="#666699" r="2.712" stroke="#666699" stroke-miterlimit="10" stroke-width="4"/><path d="M380.688,301.029  c-1.379-0.583-2.026-2.176-1.444-3.555c0.584-1.38,2.176-2.026,3.557-1.443c1.377,0.583,2.027,2.175,1.443,3.557  C383.66,300.967,382.066,301.611,380.688,301.029z" fill="#666699" stroke="#666699" stroke-miterlimit="10" stroke-width="4"/><g><path d="M244.631,22.023c0.457-0.926,1.4-1.513,2.434-1.513s1.977,0.586,2.434,1.513l9.678,19.607l21.639,3.145   c1.022,0.148,1.872,0.865,2.19,1.848c0.319,0.982,0.054,2.061-0.687,2.782l-15.658,15.263l3.696,21.552   c0.175,1.018-0.244,2.047-1.08,2.655c-0.836,0.607-1.943,0.687-2.858,0.207l-19.354-10.175L227.71,89.082   c-0.915,0.48-2.022,0.4-2.858-0.207c-0.836-0.607-1.254-1.637-1.08-2.655l3.695-21.552L211.81,49.405   c-0.74-0.721-1.006-1.8-0.687-2.782c0.319-0.983,1.168-1.699,2.191-1.848l21.64-3.145L244.631,22.023z" fill="#FFF37F"/><polygon fill="#E4C263" points="224.853,88.875 246.535,55.512 247.065,79.645  "/><polygon fill="#E4C263" points="269.278,88.875 246.535,55.512 247.065,79.645  "/><polygon fill="#E4C263" points="246.535,55.096 283.007,46.623 267.366,64.668  "/><polygon fill="#E4C263" points="227.469,64.668 246.535,55.096 212.231,46.623  "/><polygon fill="#FEFBE0" points="246.856,21.248 246.535,55.096 212.231,46.623 234.954,41.631  "/><g><path d="M175.019,91.728c-0.68,0-1.33-0.21-1.88-0.609c-0.995-0.727-1.482-1.923-1.279-3.129l1.46-8.504    l-6.176-6.018c-0.881-0.862-1.19-2.12-0.81-3.284c0.378-1.163,1.367-1.998,2.581-2.176l8.537-1.241l3.818-7.733    c0.545-1.101,1.645-1.783,2.872-1.783c1.209,0,2.336,0.7,2.87,1.784l3.815,7.732l8.534,1.241c1.217,0.178,2.207,1.015,2.584,2.183    c0.38,1.155,0.072,2.414-0.807,3.274l-6.178,6.021l1.458,8.499c0.207,1.208-0.28,2.407-1.27,3.129    c-0.559,0.403-1.208,0.613-1.885,0.613l0,0c-0.518,0-1.034-0.127-1.491-0.369l-7.631-4.01l-7.634,4.013    C176.051,91.6,175.536,91.728,175.019,91.728z" fill="#F59392"/><path d="M184.141,59.25c0.457,0,0.875,0.26,1.076,0.668l4.281,8.676l9.574,1.393    c0.453,0.066,0.828,0.383,0.969,0.818c0.143,0.434,0.024,0.91-0.303,1.23l-6.928,6.752l1.636,9.535    c0.077,0.451-0.108,0.906-0.478,1.176c-0.209,0.151-0.457,0.228-0.706,0.228c-0.191,0-0.384-0.045-0.56-0.138l-8.562-4.5    l-8.564,4.502c-0.175,0.092-0.367,0.138-0.557,0.138c-0.25,0-0.499-0.078-0.708-0.229c-0.369-0.27-0.555-0.725-0.479-1.176    l1.637-9.535l-6.929-6.752c-0.327-0.32-0.446-0.797-0.305-1.23c0.142-0.436,0.518-0.752,0.97-0.818l9.574-1.393l4.283-8.676    C183.266,59.508,183.684,59.25,184.141,59.25 M184.141,55.25c-1.992,0-3.779,1.108-4.663,2.893l-3.355,6.795l-7.494,1.09    c-1.976,0.291-3.583,1.646-4.198,3.54c-0.616,1.887-0.115,3.93,1.311,5.326l5.429,5.29l-1.281,7.462    c-0.333,1.969,0.458,3.912,2.062,5.083c0.909,0.657,1.964,0.999,3.067,0.999c0.84,0,1.678-0.207,2.421-0.598l6.701-3.522    l6.702,3.522c0.742,0.39,1.58,0.597,2.42,0.597c1.1,0,2.153-0.34,3.045-0.983c1.626-1.188,2.416-3.134,2.081-5.095l-1.281-7.464    l5.422-5.284c1.434-1.404,1.934-3.45,1.311-5.345c-0.606-1.878-2.214-3.237-4.188-3.526l-7.498-1.091l-3.351-6.79    C187.937,56.388,186.106,55.25,184.141,55.25L184.141,55.25z" fill="#6D6DAA"/></g><g><path d="M318.537,91.728c-0.517,0-1.03-0.127-1.487-0.367l-7.635-4.013l-7.632,4.011    c-0.459,0.241-0.974,0.368-1.491,0.368c-0.678,0-1.327-0.21-1.877-0.607c-0.995-0.727-1.482-1.923-1.278-3.129l1.459-8.504    l-6.174-6.018c-0.881-0.865-1.189-2.121-0.81-3.284c0.379-1.164,1.368-1.999,2.581-2.176l8.536-1.241l3.815-7.733    c0.534-1.083,1.66-1.783,2.87-1.783c1.229,0,2.329,0.684,2.871,1.784l3.817,7.732l8.535,1.242    c1.216,0.178,2.205,1.013,2.584,2.179c0.378,1.167,0.067,2.422-0.811,3.28l-6.176,6.019l1.458,8.499    c0.206,1.208-0.28,2.407-1.27,3.129C319.864,91.518,319.215,91.728,318.537,91.728z" fill="#F59392"/><path d="M309.415,59.25c0.457,0,0.875,0.258,1.077,0.668l4.283,8.676l9.575,1.393    c0.452,0.066,0.828,0.383,0.97,0.818c0.141,0.434,0.022,0.91-0.306,1.23l-6.928,6.752l1.636,9.535    c0.077,0.451-0.108,0.906-0.478,1.176c-0.21,0.152-0.459,0.229-0.708,0.229c-0.19,0-0.382-0.045-0.558-0.138l-8.564-4.502    l-8.562,4.5c-0.177,0.093-0.369,0.138-0.561,0.138c-0.249,0-0.496-0.077-0.705-0.228c-0.369-0.27-0.555-0.725-0.479-1.176    l1.637-9.535l-6.928-6.752c-0.326-0.32-0.445-0.797-0.304-1.23c0.142-0.436,0.517-0.752,0.97-0.818l9.574-1.393l4.281-8.676    C308.54,59.51,308.958,59.25,309.415,59.25 M309.415,55.25c-1.965,0-3.796,1.138-4.664,2.9l-3.35,6.788l-7.494,1.09    c-1.975,0.29-3.582,1.646-4.197,3.54c-0.616,1.885-0.116,3.926,1.305,5.321l5.433,5.294l-1.281,7.462    c-0.332,1.969,0.459,3.912,2.062,5.083c0.908,0.657,1.962,0.998,3.063,0.998c0.84,0,1.677-0.207,2.421-0.597l6.702-3.522    l6.703,3.523c0.744,0.391,1.58,0.597,2.419,0.597c1.1,0,2.154-0.341,3.048-0.985c1.626-1.188,2.416-3.134,2.08-5.095l-1.28-7.464    l5.422-5.284c1.428-1.395,1.933-3.436,1.318-5.329c-0.616-1.896-2.223-3.252-4.193-3.542l-7.5-1.091l-3.353-6.791    C313.198,56.361,311.411,55.25,309.415,55.25L309.415,55.25z" fill="#6D6DAA"/></g><path d="M244.631,22.023c0.457-0.926,1.4-1.513,2.434-1.513   s1.977,0.586,2.434,1.513l9.678,19.607l21.639,3.145c1.022,0.148,1.872,0.865,2.19,1.848c0.319,0.982,0.054,2.061-0.687,2.782   l-15.658,15.263l3.696,21.552c0.175,1.018-0.244,2.047-1.08,2.655c-0.836,0.607-1.943,0.687-2.858,0.207l-19.354-10.175   L227.71,89.082c-0.915,0.48-2.022,0.4-2.858-0.207c-0.836-0.607-1.254-1.637-1.08-2.655l3.695-21.552L211.81,49.405   c-0.74-0.721-1.006-1.8-0.687-2.782c0.319-0.983,1.168-1.699,2.191-1.848l21.64-3.145L244.631,22.023z" fill="none" stroke="#6D6DAA" stroke-miterlimit="10" stroke-width="4"/><polyline fill="none" points="269.278,88.873 246.856,54.951    283.007,46.623  " stroke="#6D6DAA" stroke-miterlimit="10" stroke-width="2"/><line fill="none" stroke="#6D6DAA" stroke-miterlimit="10" stroke-width="2" x1="246.856" x2="227.469" y1="54.951" y2="64.668"/><line fill="none" stroke="#6D6DAA" stroke-miterlimit="10" stroke-width="2" x1="246.856" x2="246.856" y1="78.906" y2="20.51"/><polyline fill="none" points="234.954,41.631 246.856,54.951    259.177,41.631  " stroke="#6D6DAA" stroke-miterlimit="10" stroke-width="2"/><polyline fill="none" points="224.853,88.873 246.856,54.951    211.124,46.623  " stroke="#6D6DAA" stroke-miterlimit="10" stroke-width="2"/><line fill="none" stroke="#6D6DAA" stroke-miterlimit="10" stroke-width="2" x1="266.661" x2="246.856" y1="64.668" y2="54.951"/></g><path d="M190.948,183.751h-14.793  c-2.453,0-4.787,1.058-6.403,2.903c-1.617,1.845-2.356,4.297-2.037,6.729c2.063,15.712,8.964,46.208,31.787,57.197" fill="none" stroke="#666699" stroke-miterlimit="10" stroke-width="10"/><path d="M201.59,344.271v0.068c57.162,0,32.674,0,89.836,0" fill="none" stroke="#666699" stroke-miterlimit="10" stroke-width="5"/><path d="M291.426,342.718v-1.71  c0-3.627-2.277-6.862-5.69-8.09c-32.996-11.862-30.61-45.646-30.61-45.646c59.31-11.58,45.776-120.018,45.776-120.018  c-110.241,0,13.666,0-108.787,0c0,0-13.533,108.438,45.774,120.018c0,0,2.324,32.888-29.305,45.159  c-4.216,1.636-6.994,5.695-6.994,10.218" fill="none" stroke="#666699" stroke-miterlimit="10" stroke-width="10"/><path d="M302.067,183.751h14.795  c2.453,0,4.787,1.058,6.403,2.903c1.617,1.845,2.356,4.297,2.037,6.73c-2.064,15.712-8.967,46.208-31.789,57.197" fill="none" stroke="#666699" stroke-miterlimit="10" stroke-width="10"/><path d="M290.272,342.718c2.26,0,4.092,1.832,4.092,4.092  v10.344c0,1.334-1.082,2.416-2.416,2.416h-90.87c-1.334,0-2.416-1.082-2.416-2.416V346.81c0-2.26,1.832-4.092,4.093-4.092" fill="none" stroke="#666699" stroke-miterlimit="10" stroke-width="10"/><path d="M214.714,154.87l-5.384-15.543c6.467,0.766,15.398,0.646,23.73-3.498c5.516-2.744,10.014-6.84,13.449-12.234  c3.436,5.395,7.934,9.49,13.449,12.234c8.33,4.143,17.265,4.27,23.731,3.498l-5.384,15.543h10.583l10.493-30.293l-9.71,3.336  c-0.136,0.047-13.842,4.645-25.261-1.037c-6.106-3.039-10.531-8.633-13.15-16.629l-4.752-14.502l-4.752,14.502  c-2.611,7.971-7.017,13.557-13.094,16.6c-11.331,5.678-25.19,1.109-25.315,1.066l-9.71-3.336l10.492,30.293H214.714z" fill="#666699"/></svg>